<svg version="1.1" xmlns="http://www.w3.org/2000/svg" xmlns:xlink="http://www.w3.org/1999/xlink" preserveAspectRatio="xMinYMin meet" viewBox="0 0 540 50">

  <style type="text/css">

    .st0 {
      fill: none;
      stroke: #FFFFFF;
      stroke-width: 1.1;
      stroke-linecap: round;
      stroke-miterlimit: 20;
    }

    .st1 {
      fill: none;
      stroke: #FFFFFF;
      stroke-width: .75;
      stroke-linecap: round;
      stroke-miterlimit: 20;
    }

    .fill {
      fill: #ffffff;
    }

    #blackboxfill, #blackboxlines {
      opacity: 0;
    }

  </style>

  <g id="blackboxfill">
    <path id="fill_00" class="fill" d="M12.5,9.2h10.8c3.3,0,5.7,0.8,7.4,2.3c1.7,1.5,2.5,3.5,2.5,6.1c0,1.7-0.4,3-1.2,4
      c-0.8,1-1.8,1.8-2.9,2.3v0.1c0.7,0.2,1.3,0.4,1.9,0.8c0.6,0.4,1.2,0.9,1.6,1.5c0.5,0.6,0.9,1.3,1.1,2c0.3,0.8,0.4,1.7,0.4,2.6
      c0,1.4-0.3,2.7-0.8,3.8c-0.5,1.1-1.2,2-2.2,2.8c-0.9,0.8-2.1,1.3-3.4,1.8c-1.3,0.4-2.7,0.6-4.3,0.6H12.5V9.2z M22.3,21.8
      c1.4,0,2.6-0.3,3.5-1c0.9-0.6,1.3-1.6,1.3-2.9c0-1.3-0.4-2.2-1.2-2.8s-1.8-0.9-3.1-0.9h-4.2v7.4H22.3z M22.6,34.6
      c1.9,0,3.3-0.4,4.1-1.1c0.8-0.8,1.2-1.7,1.2-2.8c0-0.5-0.1-1-0.2-1.4c-0.2-0.5-0.4-0.9-0.8-1.3c-0.4-0.4-0.9-0.7-1.5-0.9
      c-0.6-0.2-1.4-0.3-2.3-0.3h-4.5v7.9H22.6z"/>
    <path id="fill_01" class="fill" d="M81.9,9.2H88v24.9h11.7v5.7H81.9V9.2z"/>
    <path id="fill_02" class="fill" d="M163.4,33.4h-10.7l-2,6.4h-6.6l10.9-30.6h6.4l10.7,30.6h-6.7L163.4,33.4z M158.1,16.6
      L158.1,16.6l-3.9,11.9h7.8L158.1,16.6z"/>
    <path id="fill_03" class="fill" d="M238.8,19.6c-0.5-2-1.4-3.4-2.8-4.3c-1.3-0.9-2.9-1.3-4.8-1.3c-1.3,0-2.5,0.3-3.6,0.8
      c-1.1,0.6-2,1.3-2.7,2.3c-0.7,1-1.3,2.1-1.7,3.3c-0.4,1.3-0.6,2.6-0.6,4.1c0,1.6,0.2,3.1,0.6,4.4c0.4,1.3,1,2.4,1.8,3.3
      c0.8,0.9,1.7,1.6,2.8,2c1.1,0.5,2.3,0.7,3.6,0.7c1.6,0,3-0.4,4.4-1.1c1.4-0.7,2.3-2,2.9-3.7l6.7,0.9c-0.5,1.7-1.3,3.1-2.2,4.3
      c-0.9,1.2-2,2.2-3.2,2.9c-1.2,0.8-2.6,1.3-4.1,1.7c-1.5,0.4-3.1,0.5-4.7,0.5c-2.2,0-4.3-0.3-6.1-1c-1.9-0.7-3.5-1.7-4.8-3.1
      c-1.4-1.4-2.4-3-3.2-5c-0.8-2-1.1-4.2-1.1-6.8c0-2.2,0.4-4.3,1.1-6.2c0.7-1.9,1.8-3.6,3.1-5c1.4-1.4,3-2.5,4.8-3.4
      c1.9-0.8,3.9-1.2,6.2-1.2c1.7,0,3.3,0.2,4.8,0.5c1.5,0.3,2.9,0.9,4.1,1.7c1.2,0.8,2.3,1.8,3.1,3.1s1.5,2.8,1.9,4.6L238.8,19.6z"/>
    <path id="fill_04" class="fill" d="M307.5,9.2h7.3l-10.5,14.7L315,39.8h-7.6l-9.7-15h0v15h-6.1V9.2h6.1v14.4h0L307.5,9.2z"/>
    <path id="fill_05" class="fill" d="M360.5,9.2h10.8c3.3,0,5.7,0.8,7.4,2.3c1.7,1.5,2.5,3.5,2.5,6.1c0,1.7-0.4,3-1.2,4
      c-0.8,1-1.8,1.8-2.9,2.3v0.1c0.7,0.2,1.3,0.4,1.9,0.8c0.6,0.4,1.2,0.9,1.6,1.5c0.5,0.6,0.9,1.3,1.1,2c0.3,0.8,0.4,1.7,0.4,2.6
      c0,1.4-0.3,2.7-0.8,3.8s-1.2,2-2.2,2.8c-0.9,0.8-2.1,1.3-3.4,1.8c-1.3,0.4-2.7,0.6-4.3,0.6h-11.1V9.2z M370.3,21.8
      c1.4,0,2.6-0.3,3.5-1c0.9-0.6,1.3-1.6,1.3-2.9c0-1.3-0.4-2.2-1.2-2.8c-0.8-0.6-1.8-0.9-3.1-0.9h-4.2v7.4H370.3z M370.6,34.6
      c1.9,0,3.3-0.4,4.1-1.1c0.8-0.8,1.2-1.7,1.2-2.8c0-0.5-0.1-1-0.2-1.4c-0.2-0.5-0.4-0.9-0.8-1.3s-0.9-0.7-1.5-0.9
      c-0.6-0.2-1.4-0.3-2.3-0.3h-4.5v7.9H370.6z"/>
    <path id="fill_06" class="fill" d="M428,24.5c0-2.1,0.4-4.1,1.1-6c0.7-1.9,1.7-3.6,3.1-5.1c1.3-1.5,3-2.7,4.9-3.6
      c2-0.9,4.2-1.3,6.7-1.3c2.5,0,4.8,0.4,6.7,1.3c2,0.9,3.6,2.1,5,3.6c1.3,1.5,2.4,3.2,3.1,5.1c0.7,1.9,1,3.9,1,6c0,2-0.3,4-1,5.9
      c-0.7,1.9-1.7,3.6-3.1,5.1c-1.4,1.5-3,2.6-5,3.5c-2,0.9-4.2,1.3-6.7,1.3c-2.5,0-4.8-0.4-6.7-1.3c-2-0.9-3.6-2.1-4.9-3.5
      c-1.3-1.5-2.4-3.2-3.1-5.1C428.4,28.6,428,26.6,428,24.5z M452.9,24.5c0-1.4-0.2-2.7-0.6-4c-0.4-1.3-1-2.4-1.7-3.3
      c-0.8-1-1.7-1.7-2.9-2.3c-1.2-0.6-2.5-0.9-4-0.9s-2.8,0.3-4,0.9c-1.1,0.6-2.1,1.3-2.9,2.3s-1.3,2.1-1.7,3.3c-0.4,1.3-0.6,2.6-0.6,4
      c0,1.4,0.2,2.7,0.6,3.9c0.4,1.3,1,2.4,1.7,3.3c0.8,1,1.7,1.7,2.9,2.3c1.1,0.6,2.5,0.9,4,0.9s2.8-0.3,4-0.9c1.2-0.6,2.1-1.3,2.9-2.3
      c0.8-1,1.3-2.1,1.7-3.3S452.9,25.9,452.9,24.5z"/>
    <path id="fill_07" class="fill" d="M515.6,29.5l-5.9,10.3h-7.3l9.6-15.5l-9-15.1h7.3l5.6,10.4l5.5-10.4h7.2l-9.2,15.1l9.5,15.5
      h-7.5L515.6,29.5z"/>
  </g>

  <g id="blackboxlines">
    <path id="bbpath_bl" class="st1" d="M12.5,9.2h10.8c3.3,0,5.7,0.8,7.4,2.3c1.7,1.5,2.5,3.5,2.5,6.1c0,1.7-0.4,3-1.2,4
      c-0.8,1-1.8,1.8-2.9,2.3v0.1c0.7,0.2,1.3,0.4,1.9,0.8c0.6,0.4,1.2,0.9,1.6,1.5c0.5,0.6,0.9,1.3,1.1,2c0.3,0.8,0.4,1.7,0.4,2.6
      c0,1.4-0.3,2.7-0.8,3.8c-0.5,1.1-1.2,2-2.2,2.8c-0.9,0.8-2.1,1.3-3.4,1.8c-1.3,0.4-2.7,0.6-4.3,0.6H12.5V9.2z M22.3,21.8
      c1.4,0,2.6-0.3,3.5-1c0.9-0.6,1.3-1.6,1.3-2.9c0-1.3-0.4-2.2-1.2-2.8s-1.8-0.9-3.1-0.9h-4.2v7.4H22.3z M22.6,34.6
      c1.9,0,3.3-0.4,4.1-1.1c0.8-0.8,1.2-1.7,1.2-2.8c0-0.5-0.1-1-0.2-1.4c-0.2-0.5-0.4-0.9-0.8-1.3c-0.4-0.4-0.9-0.7-1.5-0.9
      c-0.6-0.2-1.4-0.3-2.3-0.3h-4.5v7.9H22.6z"/>
    <path id="bbpath1_bl" class="st1" d="M81.9,9.2H88v24.9h11.7v5.7H81.9V9.2z"/>
    <path id="bbpath2_bl" class="st1" d="M163.4,33.4h-10.7l-2,6.4h-6.6l10.9-30.6h6.4l10.7,30.6h-6.7L163.4,33.4z M158.1,16.6
      L158.1,16.6l-3.9,11.9h7.8L158.1,16.6z"/>
    <path id="bbpath3_bl" class="st1" d="M238.8,19.6c-0.5-2-1.4-3.4-2.8-4.3c-1.3-0.9-2.9-1.3-4.8-1.3c-1.3,0-2.5,0.3-3.6,0.8
      c-1.1,0.6-2,1.3-2.7,2.3c-0.7,1-1.3,2.1-1.7,3.3c-0.4,1.3-0.6,2.6-0.6,4.1c0,1.6,0.2,3.1,0.6,4.4c0.4,1.3,1,2.4,1.8,3.3
      c0.8,0.9,1.7,1.6,2.8,2c1.1,0.5,2.3,0.7,3.6,0.7c1.6,0,3-0.4,4.4-1.1c1.4-0.7,2.3-2,2.9-3.7l6.7,0.9c-0.5,1.7-1.3,3.1-2.2,4.3
      c-0.9,1.2-2,2.2-3.2,2.9c-1.2,0.8-2.6,1.3-4.1,1.7c-1.5,0.4-3.1,0.5-4.7,0.5c-2.2,0-4.3-0.3-6.1-1c-1.9-0.7-3.5-1.7-4.8-3.1
      c-1.4-1.4-2.4-3-3.2-5c-0.8-2-1.1-4.2-1.1-6.8c0-2.2,0.4-4.3,1.1-6.2c0.7-1.9,1.8-3.6,3.1-5c1.4-1.4,3-2.5,4.8-3.4
      c1.9-0.8,3.9-1.2,6.2-1.2c1.7,0,3.3,0.2,4.8,0.5c1.5,0.3,2.9,0.9,4.1,1.7c1.2,0.8,2.3,1.8,3.1,3.1s1.5,2.8,1.9,4.6L238.8,19.6z"/>
    <path id="bbpath4_bl" class="st1" d="M307.5,9.2h7.3l-10.5,14.7L315,39.8h-7.6l-9.7-15h0v15h-6.1V9.2h6.1v14.4h0L307.5,9.2z"/>
    <path id="bbpath5_bl" class="st1" d="M360.5,9.2h10.8c3.3,0,5.7,0.8,7.4,2.3c1.7,1.5,2.5,3.5,2.5,6.1c0,1.7-0.4,3-1.2,4
      c-0.8,1-1.8,1.8-2.9,2.3v0.1c0.7,0.2,1.3,0.4,1.9,0.8c0.6,0.4,1.2,0.9,1.6,1.5c0.5,0.6,0.9,1.3,1.1,2c0.3,0.8,0.4,1.7,0.4,2.6
      c0,1.4-0.3,2.7-0.8,3.8s-1.2,2-2.2,2.8c-0.9,0.8-2.1,1.3-3.4,1.8c-1.3,0.4-2.7,0.6-4.3,0.6h-11.1V9.2z M370.3,21.8
      c1.4,0,2.6-0.3,3.5-1c0.9-0.6,1.3-1.6,1.3-2.9c0-1.3-0.4-2.2-1.2-2.8c-0.8-0.6-1.8-0.9-3.1-0.9h-4.2v7.4H370.3z M370.6,34.6
      c1.9,0,3.3-0.4,4.1-1.1c0.8-0.8,1.2-1.7,1.2-2.8c0-0.5-0.1-1-0.2-1.4c-0.2-0.5-0.4-0.9-0.8-1.3s-0.9-0.7-1.5-0.9
      c-0.6-0.2-1.4-0.3-2.3-0.3h-4.5v7.9H370.6z"/>
    <path id="bbpath6_bl" class="st1" d="M428,24.5c0-2.1,0.4-4.1,1.1-6c0.7-1.9,1.7-3.6,3.1-5.1c1.3-1.5,3-2.7,4.9-3.6
      c2-0.9,4.2-1.3,6.7-1.3c2.5,0,4.8,0.4,6.7,1.3c2,0.9,3.6,2.1,5,3.6c1.3,1.5,2.4,3.2,3.1,5.1c0.7,1.9,1,3.9,1,6c0,2-0.3,4-1,5.9
      c-0.7,1.9-1.7,3.6-3.1,5.1c-1.4,1.5-3,2.6-5,3.5c-2,0.9-4.2,1.3-6.7,1.3c-2.5,0-4.8-0.4-6.7-1.3c-2-0.9-3.6-2.1-4.9-3.5
      c-1.3-1.5-2.4-3.2-3.1-5.1C428.4,28.6,428,26.6,428,24.5z M452.9,24.5c0-1.4-0.2-2.7-0.6-4c-0.4-1.3-1-2.4-1.7-3.3
      c-0.8-1-1.7-1.7-2.9-2.3c-1.2-0.6-2.5-0.9-4-0.9s-2.8,0.3-4,0.9c-1.1,0.6-2.1,1.3-2.9,2.3s-1.3,2.1-1.7,3.3c-0.4,1.3-0.6,2.6-0.6,4
      c0,1.4,0.2,2.7,0.6,3.9c0.4,1.3,1,2.4,1.7,3.3c0.8,1,1.7,1.7,2.9,2.3c1.1,0.6,2.5,0.9,4,0.9s2.8-0.3,4-0.9c1.2-0.6,2.1-1.3,2.9-2.3
      c0.8-1,1.3-2.1,1.7-3.3S452.9,25.9,452.9,24.5z"/>
    <path id="bbpath7_bl" class="st1" d="M515.6,29.5l-5.9,10.3h-7.3l9.6-15.5l-9-15.1h7.3l5.6,10.4l5.5-10.4h7.2l-9.2,15.1l9.5,15.5
      h-7.5L515.6,29.5z"/>
    <path id="bbpath" class="st0" d="M12.5,9.2h10.8c3.3,0,5.7,0.8,7.4,2.3c1.7,1.5,2.5,3.5,2.5,6.1c0,1.7-0.4,3-1.2,4
      c-0.8,1-1.8,1.8-2.9,2.3v0.1c0.7,0.2,1.3,0.4,1.9,0.8c0.6,0.4,1.2,0.9,1.6,1.5c0.5,0.6,0.9,1.3,1.1,2c0.3,0.8,0.4,1.7,0.4,2.6
      c0,1.4-0.3,2.7-0.8,3.8c-0.5,1.1-1.2,2-2.2,2.8c-0.9,0.8-2.1,1.3-3.4,1.8c-1.3,0.4-2.7,0.6-4.3,0.6H12.5V9.2z M22.3,21.8
      c1.4,0,2.6-0.3,3.5-1c0.9-0.6,1.3-1.6,1.3-2.9c0-1.3-0.4-2.2-1.2-2.8s-1.8-0.9-3.1-0.9h-4.2v7.4H22.3z M22.6,34.6
      c1.9,0,3.3-0.4,4.1-1.1c0.8-0.8,1.2-1.7,1.2-2.8c0-0.5-0.1-1-0.2-1.4c-0.2-0.5-0.4-0.9-0.8-1.3c-0.4-0.4-0.9-0.7-1.5-0.9
      c-0.6-0.2-1.4-0.3-2.3-0.3h-4.5v7.9H22.6z"/>
    <path id="bbpath1" class="st0" d="M81.9,9.2H88v24.9h11.7v5.7H81.9V9.2z"/>
    <path id="bbpath2" class="st0" d="M163.4,33.4h-10.7l-2,6.4h-6.6l10.9-30.6h6.4l10.7,30.6h-6.7L163.4,33.4z M158.1,16.6
      L158.1,16.6l-3.9,11.9h7.8L158.1,16.6z"/>
    <path id="bbpath3" class="st0" d="M238.8,19.6c-0.5-2-1.4-3.4-2.8-4.3c-1.3-0.9-2.9-1.3-4.8-1.3c-1.3,0-2.5,0.3-3.6,0.8
      c-1.1,0.6-2,1.3-2.7,2.3c-0.7,1-1.3,2.1-1.7,3.3c-0.4,1.3-0.6,2.6-0.6,4.1c0,1.6,0.2,3.1,0.6,4.4c0.4,1.3,1,2.4,1.8,3.3
      c0.8,0.9,1.7,1.6,2.8,2c1.1,0.5,2.3,0.7,3.6,0.7c1.6,0,3-0.4,4.4-1.1c1.4-0.7,2.3-2,2.9-3.7l6.7,0.9c-0.5,1.7-1.3,3.1-2.2,4.3
      c-0.9,1.2-2,2.2-3.2,2.9c-1.2,0.8-2.6,1.3-4.1,1.7c-1.5,0.4-3.1,0.5-4.7,0.5c-2.2,0-4.3-0.3-6.1-1c-1.9-0.7-3.5-1.7-4.8-3.1
      c-1.4-1.4-2.4-3-3.2-5c-0.8-2-1.1-4.2-1.1-6.8c0-2.2,0.4-4.3,1.1-6.2c0.7-1.9,1.8-3.6,3.1-5c1.4-1.4,3-2.5,4.8-3.4
      c1.9-0.8,3.9-1.2,6.2-1.2c1.7,0,3.3,0.2,4.8,0.5c1.5,0.3,2.9,0.9,4.1,1.7c1.2,0.8,2.3,1.8,3.1,3.1s1.5,2.8,1.9,4.6L238.8,19.6z"/>
    <path id="bbpath4" class="st0" d="M307.5,9.2h7.3l-10.5,14.7L315,39.8h-7.6l-9.7-15h0v15h-6.1V9.2h6.1v14.4h0L307.5,9.2z"/>
    <path id="bbpath5" class="st0" d="M360.5,9.2h10.8c3.3,0,5.7,0.8,7.4,2.3c1.7,1.5,2.5,3.5,2.5,6.1c0,1.7-0.4,3-1.2,4
      c-0.8,1-1.8,1.8-2.9,2.3v0.1c0.7,0.2,1.3,0.4,1.9,0.8c0.6,0.4,1.2,0.9,1.6,1.5c0.5,0.6,0.9,1.3,1.1,2c0.3,0.8,0.4,1.7,0.4,2.6
      c0,1.4-0.3,2.7-0.8,3.8s-1.2,2-2.2,2.8c-0.9,0.8-2.1,1.3-3.4,1.8c-1.3,0.4-2.7,0.6-4.3,0.6h-11.1V9.2z M370.3,21.8
      c1.4,0,2.6-0.3,3.5-1c0.9-0.6,1.3-1.6,1.3-2.9c0-1.3-0.4-2.2-1.2-2.8c-0.8-0.6-1.8-0.9-3.1-0.9h-4.2v7.4H370.3z M370.6,34.6
      c1.9,0,3.3-0.4,4.1-1.1c0.8-0.8,1.2-1.7,1.2-2.8c0-0.5-0.1-1-0.2-1.4c-0.2-0.5-0.4-0.9-0.8-1.3s-0.9-0.7-1.5-0.9
      c-0.6-0.2-1.4-0.3-2.3-0.3h-4.5v7.9H370.6z"/>
    <path id="bbpath6" class="st0" d="M428,24.5c0-2.1,0.4-4.1,1.1-6c0.7-1.9,1.7-3.6,3.1-5.1c1.3-1.5,3-2.7,4.9-3.6
      c2-0.9,4.2-1.3,6.7-1.3c2.5,0,4.8,0.4,6.7,1.3c2,0.9,3.6,2.1,5,3.6c1.3,1.5,2.4,3.2,3.1,5.1c0.7,1.9,1,3.9,1,6c0,2-0.3,4-1,5.9
      c-0.7,1.9-1.7,3.6-3.1,5.1c-1.4,1.5-3,2.6-5,3.5c-2,0.9-4.2,1.3-6.7,1.3c-2.5,0-4.8-0.4-6.7-1.3c-2-0.9-3.6-2.1-4.9-3.5
      c-1.3-1.5-2.4-3.2-3.1-5.1C428.4,28.6,428,26.6,428,24.5z M452.9,24.5c0-1.4-0.2-2.7-0.6-4c-0.4-1.3-1-2.4-1.7-3.3
      c-0.8-1-1.7-1.7-2.9-2.3c-1.2-0.6-2.5-0.9-4-0.9s-2.8,0.3-4,0.9c-1.1,0.6-2.1,1.3-2.9,2.3s-1.3,2.1-1.7,3.3c-0.4,1.3-0.6,2.6-0.6,4
      c0,1.4,0.2,2.7,0.6,3.9c0.4,1.3,1,2.4,1.7,3.3c0.8,1,1.7,1.7,2.9,2.3c1.1,0.6,2.5,0.9,4,0.9s2.8-0.3,4-0.9c1.2-0.6,2.1-1.3,2.9-2.3
      c0.8-1,1.3-2.1,1.7-3.3S452.9,25.9,452.9,24.5z"/>
    <path id="bbpath7" class="st0" d="M515.6,29.5l-5.9,10.3h-7.3l9.6-15.5l-9-15.1h7.3l5.6,10.4l5.5-10.4h7.2l-9.2,15.1l9.5,15.5
      h-7.5L515.6,29.5z"/>
  </g>

</svg>